<svg width="118" height="23" viewBox="0 0 118 23" fill="none" xmlns="http://www.w3.org/2000/svg">
<path d="M0.852273 3.58807V0.545454H15.1875V3.58807H9.84375V18H6.19602V3.58807H0.852273ZM21.5476 18.2557C20.201 18.2557 19.0419 17.983 18.0703 17.4375C17.1044 16.8864 16.3601 16.108 15.8374 15.1023C15.3146 14.0909 15.0533 12.8949 15.0533 11.5142C15.0533 10.1676 15.3146 8.9858 15.8374 7.96875C16.3601 6.9517 17.0959 6.15909 18.0447 5.59091C18.9993 5.02273 20.1186 4.73864 21.4027 4.73864C22.2663 4.73864 23.0703 4.87784 23.8146 5.15625C24.5646 5.42898 25.218 5.84091 25.7749 6.39205C26.3374 6.94318 26.7749 7.63636 27.0874 8.47159C27.3999 9.30114 27.5561 10.2727 27.5561 11.3864V12.3835H16.5021V10.1335H24.1385C24.1385 9.6108 24.0249 9.14773 23.7976 8.74432C23.5703 8.34091 23.255 8.02557 22.8516 7.7983C22.4538 7.56534 21.9908 7.44886 21.4624 7.44886C20.9112 7.44886 20.4226 7.5767 19.9964 7.83239C19.576 8.08239 19.2464 8.42045 19.0078 8.84659C18.7692 9.26705 18.647 9.7358 18.6413 10.2528V12.392C18.6413 13.0398 18.7607 13.5994 18.9993 14.071C19.2436 14.5426 19.5874 14.9062 20.0305 15.1619C20.4737 15.4176 20.9993 15.5455 21.6072 15.5455C22.0107 15.5455 22.38 15.4886 22.7152 15.375C23.0504 15.2614 23.3374 15.0909 23.576 14.8636C23.8146 14.6364 23.9964 14.358 24.1214 14.0284L27.4794 14.25C27.3089 15.0568 26.9595 15.7614 26.4311 16.3636C25.9084 16.9602 25.2322 17.4261 24.4027 17.7614C23.5788 18.0909 22.6271 18.2557 21.5476 18.2557ZM35.8402 18.2557C34.4993 18.2557 33.3459 17.9716 32.38 17.4034C31.4197 16.8295 30.6811 16.0341 30.1641 15.017C29.6527 14 29.397 12.8295 29.397 11.5057C29.397 10.1648 29.6555 8.98864 30.1726 7.97727C30.6953 6.96023 31.4368 6.16761 32.397 5.59943C33.3572 5.02557 34.4993 4.73864 35.8232 4.73864C36.9652 4.73864 37.9652 4.94602 38.8232 5.36079C39.6811 5.77557 40.3601 6.35795 40.8601 7.10795C41.3601 7.85795 41.6357 8.73864 41.6868 9.75H38.2607C38.1641 9.09659 37.9084 8.57102 37.4936 8.1733C37.0845 7.76989 36.5476 7.56818 35.8828 7.56818C35.3203 7.56818 34.8288 7.72159 34.4084 8.02841C33.9936 8.32955 33.6697 8.76989 33.4368 9.34943C33.2038 9.92898 33.0874 10.6307 33.0874 11.4545C33.0874 12.2898 33.201 13 33.4283 13.5852C33.6612 14.1705 33.9879 14.6165 34.4084 14.9233C34.8288 15.2301 35.3203 15.3835 35.8828 15.3835C36.2976 15.3835 36.6697 15.2983 36.9993 15.1278C37.3345 14.9574 37.6101 14.7102 37.826 14.3864C38.0476 14.0568 38.1925 13.6619 38.2607 13.2017H41.6868C41.63 14.2017 41.3572 15.0824 40.8686 15.8438C40.3857 16.5994 39.718 17.1903 38.8658 17.6165C38.0135 18.0426 37.005 18.2557 35.8402 18.2557ZM47.642 10.4318V18H44.0114V0.545454H47.5398V7.21875H47.6932C47.9886 6.44602 48.4659 5.84091 49.125 5.40341C49.7841 4.96023 50.6108 4.73864 51.6051 4.73864C52.5142 4.73864 53.3068 4.9375 53.983 5.33523C54.6648 5.72727 55.1932 6.29261 55.5682 7.03125C55.9489 7.7642 56.1364 8.64205 56.1307 9.66477V18H52.5V10.3125C52.5057 9.50568 52.3011 8.87784 51.8864 8.42898C51.4773 7.98011 50.9034 7.75568 50.1648 7.75568C49.6705 7.75568 49.233 7.8608 48.8523 8.07102C48.4773 8.28125 48.1818 8.58807 47.9659 8.99148C47.7557 9.3892 47.6477 9.86932 47.642 10.4318ZM68.5249 5.56534C68.4567 4.87784 68.1641 4.34375 67.647 3.96307C67.13 3.58239 66.4283 3.39204 65.5419 3.39204C64.9396 3.39204 64.4311 3.47727 64.0163 3.64773C63.6016 3.8125 63.2834 4.04261 63.0618 4.33807C62.8459 4.63352 62.7379 4.96875 62.7379 5.34375C62.7266 5.65625 62.7919 5.92898 62.9339 6.16193C63.0817 6.39489 63.2834 6.59659 63.5391 6.76705C63.7947 6.93182 64.0902 7.0767 64.4254 7.2017C64.7607 7.32102 65.1186 7.4233 65.4993 7.50852L67.0675 7.88352C67.8288 8.05398 68.5277 8.28125 69.1641 8.56534C69.8004 8.84943 70.3516 9.19886 70.8175 9.61364C71.2834 10.0284 71.6442 10.517 71.8999 11.0795C72.1612 11.642 72.2947 12.2869 72.3004 13.0142C72.2947 14.0824 72.022 15.0085 71.4822 15.7926C70.9482 16.571 70.1754 17.1761 69.1641 17.608C68.1584 18.0341 66.9453 18.2472 65.5249 18.2472C64.1158 18.2472 62.8885 18.0312 61.843 17.5994C60.8033 17.1676 59.9908 16.5284 59.4055 15.6818C58.826 14.8295 58.522 13.7756 58.4936 12.5199H62.0646C62.1044 13.1051 62.272 13.5937 62.5675 13.9858C62.8686 14.3722 63.2692 14.6648 63.7692 14.8636C64.2749 15.0568 64.8459 15.1534 65.4822 15.1534C66.1072 15.1534 66.6499 15.0625 67.1101 14.8807C67.576 14.6989 67.9368 14.446 68.1925 14.1222C68.4482 13.7983 68.576 13.4261 68.576 13.0057C68.576 12.6136 68.4595 12.2841 68.2266 12.017C67.9993 11.75 67.6641 11.5227 67.2209 11.3352C66.7834 11.1477 66.2464 10.9773 65.6101 10.8239L63.7095 10.3466C62.2379 9.98864 61.076 9.42898 60.2237 8.66761C59.3714 7.90625 58.9482 6.88068 58.9538 5.59091C58.9482 4.53409 59.2294 3.6108 59.7976 2.82102C60.3714 2.03125 61.1584 1.41477 62.1584 0.971591C63.1584 0.528409 64.2947 0.306818 65.5675 0.306818C66.8629 0.306818 67.9936 0.528409 68.9595 0.971591C69.9311 1.41477 70.6868 2.03125 71.2266 2.82102C71.7663 3.6108 72.0447 4.52557 72.0618 5.56534H68.5249ZM78.3452 10.4318V18H74.7145V0.545454H78.2429V7.21875H78.3963C78.6918 6.44602 79.169 5.84091 79.8281 5.40341C80.4872 4.96023 81.3139 4.73864 82.3082 4.73864C83.2173 4.73864 84.0099 4.9375 84.6861 5.33523C85.3679 5.72727 85.8963 6.29261 86.2713 7.03125C86.652 7.7642 86.8395 8.64205 86.8338 9.66477V18H83.2031V10.3125C83.2088 9.50568 83.0043 8.87784 82.5895 8.42898C82.1804 7.98011 81.6065 7.75568 80.8679 7.75568C80.3736 7.75568 79.9361 7.8608 79.5554 8.07102C79.1804 8.28125 78.8849 8.58807 78.669 8.99148C78.4588 9.3892 78.3509 9.86932 78.3452 10.4318ZM95.6058 18.2557C94.282 18.2557 93.1371 17.9744 92.1712 17.4119C91.2109 16.8437 90.4695 16.054 89.9467 15.0426C89.424 14.0256 89.1626 12.8466 89.1626 11.5057C89.1626 10.1534 89.424 8.97159 89.9467 7.96023C90.4695 6.94318 91.2109 6.15341 92.1712 5.59091C93.1371 5.02273 94.282 4.73864 95.6058 4.73864C96.9297 4.73864 98.0717 5.02273 99.032 5.59091C99.9979 6.15341 100.742 6.94318 101.265 7.96023C101.788 8.97159 102.049 10.1534 102.049 11.5057C102.049 12.8466 101.788 14.0256 101.265 15.0426C100.742 16.054 99.9979 16.8437 99.032 17.4119C98.0717 17.9744 96.9297 18.2557 95.6058 18.2557ZM95.6229 15.4432C96.2251 15.4432 96.728 15.2727 97.1314 14.9318C97.5348 14.5852 97.8388 14.1136 98.0433 13.517C98.2536 12.9205 98.3587 12.2415 98.3587 11.4801C98.3587 10.7188 98.2536 10.0398 98.0433 9.44318C97.8388 8.84659 97.5348 8.375 97.1314 8.02841C96.728 7.68182 96.2251 7.50852 95.6229 7.50852C95.0149 7.50852 94.5036 7.68182 94.0888 8.02841C93.6797 8.375 93.37 8.84659 93.1598 9.44318C92.9553 10.0398 92.853 10.7188 92.853 11.4801C92.853 12.2415 92.9553 12.9205 93.1598 13.517C93.37 14.1136 93.6797 14.5852 94.0888 14.9318C94.5036 15.2727 95.0149 15.4432 95.6229 15.4432ZM104.41 22.9091V4.90909H107.989V7.10795H108.151C108.31 6.75568 108.54 6.39773 108.842 6.03409C109.148 5.66477 109.546 5.35795 110.035 5.11364C110.529 4.86364 111.143 4.73864 111.876 4.73864C112.83 4.73864 113.711 4.98864 114.518 5.48864C115.325 5.98295 115.969 6.73011 116.452 7.73011C116.935 8.72443 117.177 9.97159 117.177 11.4716C117.177 12.9318 116.941 14.1648 116.469 15.1705C116.004 16.1705 115.367 16.929 114.56 17.446C113.759 17.9574 112.862 18.2131 111.867 18.2131C111.163 18.2131 110.563 18.0966 110.069 17.8636C109.58 17.6307 109.18 17.3381 108.867 16.9858C108.555 16.6278 108.316 16.267 108.151 15.9034H108.04V22.9091H104.41ZM107.964 11.4545C107.964 12.233 108.072 12.9119 108.288 13.4915C108.504 14.071 108.816 14.5227 109.225 14.8466C109.634 15.1648 110.131 15.3239 110.717 15.3239C111.308 15.3239 111.808 15.1619 112.217 14.8381C112.626 14.5085 112.935 14.054 113.146 13.4744C113.362 12.8892 113.469 12.2159 113.469 11.4545C113.469 10.6989 113.364 10.0341 113.154 9.46023C112.944 8.88636 112.634 8.4375 112.225 8.11364C111.816 7.78977 111.313 7.62784 110.717 7.62784C110.126 7.62784 109.626 7.78409 109.217 8.09659C108.813 8.40909 108.504 8.85227 108.288 9.42614C108.072 10 107.964 10.6761 107.964 11.4545Z" fill="black"/>
</svg>
